<?xml version="1.0" encoding="iso-8859-1"?>
<!-- Uploaded to: SVG Repo, www.svgrepo.com, Generator: SVG Repo Mixer Tools -->
<svg fill="#000000" height="800px" width="800px" version="1.1" id="Capa_1" xmlns="http://www.w3.org/2000/svg" xmlns:xlink="http://www.w3.org/1999/xlink" 
	 viewBox="0 0 390 390" xml:space="preserve">
<g id="XMLID_532_">
	<path id="XMLID_533_" d="M70,190c0-8.284-6.716-15-15-15l-40-0.001c-8.283,0-15,6.716-15,15c0,8.284,6.716,15,15,15L55,205
		C63.283,205,70,198.284,70,190z"/>
	<path id="XMLID_534_" d="M18.571,116.408l36.14,17.145c2.076,0.984,4.264,1.451,6.419,1.451c5.612,0,10.996-3.166,13.562-8.575
		c3.551-7.484,0.361-16.431-7.124-19.981l-36.14-17.145c-7.484-3.549-16.43-0.361-19.981,7.124
		C7.897,103.911,11.086,112.857,18.571,116.408z"/>
	<path id="XMLID_535_" d="M375,174.999L335,175c-8.284,0-15,6.716-15,15s6.716,15,15,15l40-0.001c8.284,0,15-6.716,15-15
		C390,181.715,383.284,174.999,375,174.999z"/>
	<path id="XMLID_536_" d="M328.87,135.004c2.155,0,4.344-0.467,6.419-1.451l36.14-17.145c7.485-3.551,10.675-12.497,7.124-19.981
		c-3.551-7.484-12.497-10.673-19.981-7.124l-36.14,17.145c-7.485,3.551-10.675,12.497-7.124,19.981
		C317.874,131.838,323.257,135.004,328.87,135.004z"/>
	<path id="XMLID_782_" d="M315,275h-10.093L279.901,58.28C279.027,50.712,272.619,45,265,45H125c-7.619,0-14.027,5.712-14.901,13.28
		L85.093,275H75c-19.33,0-35,15.67-35,35s15.67,35,35,35h240c19.33,0,35-15.67,35-35S334.33,275,315,275z M138.369,75H195v200
		h-79.709L138.369,75L138.369,75z"/>
</g>
</svg>